<svg width="200" height="55" viewBox="0 0 200 55" fill="none" xmlns="http://www.w3.org/2000/svg">
<g clip-path="url(#clip0_1:3)">
<path d="M27.5006 50.5672C24.492 51.0955 21.4305 51.2539 18.2635 51.6758L8.60371 23.3836V52.89C5.59512 53.2066 2.85039 53.6289 0 54.0512V0H8.02344L19.0023 30.6682V0H27.5006V50.5672ZM44.1277 19.7941C47.4006 19.7941 52.415 19.6357 55.4236 19.6357V28.0811C51.6758 28.0811 47.2949 28.0811 44.1277 28.2395V40.8023C49.0896 40.4857 54.0514 40.0631 59.0656 39.9047V48.033L35.682 49.8809V0H59.0656V8.44551H44.1277V19.7941V19.7941ZM90.4723 8.4457H81.7102V47.2949C78.8598 47.2949 76.0094 47.2949 73.265 47.4002V8.4457H64.5029V0H90.4727L90.4723 8.4457V8.4457ZM104.196 19.2137H115.756V27.659H104.196V46.8199H95.9084V0H119.504V8.44551H104.196V19.2137V19.2137ZM133.228 39.4299C138.031 39.5352 142.887 39.9053 147.585 40.1688V48.5088C140.037 48.0334 132.489 47.559 124.782 47.4002V0H133.228V39.4299ZM154.711 49.0895C157.403 49.248 160.253 49.4064 162.998 49.7227V0H154.711V49.0895V49.0895ZM200 0L189.285 25.7061L200 54.0512C196.833 53.6289 193.666 53.0482 190.498 52.5203L184.429 36.8965L178.253 51.2539C175.191 50.7256 172.235 50.5672 169.174 50.1449L180.048 25.3891L170.23 0H179.308L184.851 14.199L190.763 0H200V0Z" fill="#D81F26"/>
</g>
<defs>
<clipPath id="clip0_1:3">
<rect width="200" height="54.0512" fill="white"/>
</clipPath>
</defs>
</svg>
